<svg width="81" height="12" fill="none" xmlns="http://www.w3.org/2000/svg"><path d="M9.816 1V.875H8.79v4.516H1.903V.875H.875v10.068h1.028V6.272h6.886v4.671h1.027V1zm6.158-.125h-.125v10.068h1.028V.875h-.903zm6.456 0h-.125v10.068h7.173v-.895h-6.145V.875h-.902zm13.346 0h-.125v10.068h1.028V.875h-.903zM51.05 5.938h-.125V9.38c-.77.554-1.736.836-2.91.836-.897 0-1.7-.183-2.412-.547a4.427 4.427 0 01-1.69-1.513 3.933 3.933 0 01-.606-2.135c0-.791.202-1.501.605-2.135h0a4.17 4.17 0 011.674-1.512c.723-.365 1.532-.548 2.43-.548a5.52 5.52 0 011.789.274h.002a3.872 3.872 0 011.463.857l.087.08.085-.082.488-.477.093-.091-.095-.09a4.714 4.714 0 00-1.737-1.022 6.444 6.444 0 00-2.19-.358c-1.085 0-2.066.219-2.939.658h0a5.179 5.179 0 00-2.046 1.826h0c-.492.78-.737 1.653-.737 2.62 0 .967.245 1.84.736 2.62h0a5.178 5.178 0 002.047 1.825h0c.873.44 1.848.659 2.923.659.754 0 1.468-.11 2.142-.329.685-.22 1.27-.54 1.752-.964l.043-.038V5.938h-.872zM66.22 1V.875h-1.028v4.516h-6.886V.875H57.28v10.068h1.026V6.272h6.886v4.671h1.028V1zm5.193.701v.125h3.842V11h1.028V1.826h3.842V.931h-8.712v.77z" fill="#080808" stroke="#080808" stroke-width=".25"/></svg>