<svg width="81" height="12" fill="none" xmlns="http://www.w3.org/2000/svg"><path d="M50.925 5.938h.997v3.856l-.043.038c-.482.424-1.067.745-1.752.964m.798-4.858l-.836 4.74m.836-4.74V9.38c-.77.554-1.736.836-2.91.836-.897 0-1.7-.183-2.412-.547a4.427 4.427 0 01-1.69-1.513 3.933 3.933 0 01-.606-2.135c0-.791.202-1.501.605-2.135h0a4.171 4.171 0 011.675-1.512c.722-.365 1.531-.548 2.428-.548.66 0 1.256.092 1.79.274h.002a3.872 3.872 0 011.463.857l.087.08.085-.082.488-.477.093-.091-.095-.09a4.713 4.713 0 00-1.737-1.022m.734 4.663l-.775-4.545m-.023 9.403s0 0 0 0l-.038-.119m.038.12s0 0 0 0l-.038-.12m.038.12a6.883 6.883 0 01-2.142.328c-1.075 0-2.05-.219-2.923-.659h0a5.178 5.178 0 01-2.046-1.825h0c-.492-.78-.737-1.653-.737-2.62 0-.967.245-1.84.736-2.62h0a5.179 5.179 0 012.047-1.825h0c.873-.44 1.854-.66 2.938-.66.795 0 1.526.12 2.191.359m-.102 9.402a6.755 6.755 0 01-2.104.323c-1.057 0-2.013-.215-2.867-.645a5.053 5.053 0 01-1.997-1.781c-.478-.758-.717-1.609-.717-2.553s.24-1.795.717-2.553a5.053 5.053 0 011.997-1.78c.854-.431 1.815-.646 2.882-.646.783 0 1.5.117 2.15.35m.041-.117s0 0 0 0l-.041.118m.041-.118h.001l-.042.118M9.816 1V.875H8.79v4.516H1.903V.875H.875v10.068h1.028V6.272h6.886v4.671h1.027V1zm6.158-.125h-.125v10.068h1.028V.875h-.903zm6.456 0h-.125v10.068h7.173v-.895h-6.145V.875h-.902zm13.346 0h-.125v10.068h1.028V.875h-.903zM66.22 1V.875h-1.028v4.516h-6.886V.875H57.28v10.068h1.026V6.272h6.886v4.671h1.028V1zm5.193.701v.125h3.842V11h1.028V1.826h3.842V.931h-8.712v.77z" fill="#fff" stroke="#fff" stroke-width=".25"/></svg>