<svg width="81" height="12" viewBox="0 0 81 12" fill="none" xmlns="http://www.w3.org/2000/svg">
<path d="M9.81614 1V0.875005H9.69114H8.91351H8.78851V1V5.39121H1.90263V1V0.875005H1.77763H1H0.875V1V10.8179V10.9429H1H1.77763H1.90263V10.8179V6.27236H8.78851V10.8179V10.9429H8.91351H9.69114H9.81614V10.8179V1ZM15.974 0.875H15.849V1V10.8179V10.9429H15.974H16.7516H16.8766V10.8179V1V0.875H16.7516H15.974ZM22.4305 0.875021H22.3055V1.00002V10.8179V10.9429H22.4305H29.3529H29.4779V10.8179V10.1727V10.0477H29.3529H23.3331V1.00002V0.875021H23.2081H22.4305ZM35.776 0.875012H35.651V1.00001V10.8179V10.9429H35.776H36.5536H36.6786V10.8179V1.00001V0.875012H36.5536H35.776ZM51.0496 5.93802H50.9246V6.06302V9.37982C50.1555 9.9345 49.1885 10.2158 48.0153 10.2158C47.1182 10.2158 46.3148 10.0326 45.6026 9.66874C44.8892 9.29491 44.3267 8.79054 43.9123 8.15556C43.5087 7.51238 43.3068 6.80183 43.3068 6.02094C43.3068 5.23004 43.509 4.51954 43.9124 3.88608L43.9128 3.8854C44.3169 3.24171 44.8737 2.73792 45.5863 2.37366C46.3092 2.00935 47.1181 1.82609 48.0153 1.82609C48.6746 1.82609 49.2706 1.91797 49.8047 2.09995L49.8072 2.10073C50.3482 2.27266 50.8356 2.55768 51.2699 2.9572L51.3572 3.03744L51.4419 2.9546L51.9298 2.47773L52.0231 2.38657L51.9281 2.29725C51.4466 1.84476 50.8669 1.50417 50.1913 1.27453C49.5257 1.03554 48.7949 0.916891 48.0001 0.916891C46.9155 0.916891 45.9353 1.13555 45.062 1.57543L45.0615 1.5757C44.1992 2.01531 43.5163 2.6237 43.0157 3.4006L43.0151 3.40161C42.5241 4.18006 42.2792 5.0543 42.2792 6.02094C42.2792 6.98758 42.5241 7.86182 43.0151 8.64028L43.0157 8.64128C43.5163 9.41819 44.1992 10.0266 45.0615 10.4662L45.062 10.4665C45.9351 10.9063 46.9102 11.125 47.9848 11.125C48.739 11.125 49.4534 11.0157 50.1274 10.7964C50.8124 10.5767 51.3973 10.2557 51.8793 9.83155L51.9217 9.79422V9.7377V6.06302V5.93802H51.7967H51.0496ZM66.2199 1.00001V0.875012H66.0949H65.3172H65.1922V1.00001V5.39122H58.3064V1.00001V0.875012H58.1814H57.4037H57.2787V1.00001V10.8179V10.9429H57.4037H58.1814H58.3064V10.8179V6.27237H65.1922V10.8179V10.9429H65.3172H66.0949H66.2199V10.8179V1.00001ZM71.4126 1.70111V1.82611H71.5376H75.255V10.8738V10.9988H75.38H76.1576H76.2826V10.8738V1.82611H80H80.125V1.70111V1.05594V0.930941H80H71.5376H71.4126V1.05594V1.70111Z" fill="#080808" stroke="#080808" stroke-width="0.25"/>
</svg>
