<svg width="81" height="12" viewBox="0 0 81 12" fill="none" xmlns="http://www.w3.org/2000/svg">
<path d="M50.9246 5.93802H51.0496H51.7967H51.9217V6.06302V9.7377V9.79422L51.8793 9.83155C51.3973 10.2557 50.8124 10.5767 50.1274 10.7964M50.9246 5.93802L50.089 10.6774M50.9246 5.93802V6.06302V9.37982C50.1555 9.9345 49.1885 10.2158 48.0153 10.2158C47.1182 10.2158 46.3148 10.0326 45.6026 9.66874C44.8892 9.29492 44.3267 8.79054 43.9123 8.15557C43.5087 7.51239 43.3068 6.80183 43.3068 6.02094C43.3068 5.23004 43.509 4.51954 43.9124 3.88608L43.9128 3.8854C44.317 3.24163 44.8739 2.7378 45.5866 2.37353C46.3094 2.00931 47.1182 1.82609 48.0153 1.82609C48.6746 1.82609 49.2706 1.91797 49.8047 2.09995L49.8072 2.10073C50.3482 2.27266 50.8356 2.55768 51.2699 2.9572L51.3571 3.03744L51.4419 2.9546L51.9298 2.47773L52.0231 2.38657L51.9281 2.29725C51.4466 1.84474 50.8669 1.50415 50.1912 1.27451M50.9246 5.93802L50.15 1.39253M50.1274 10.7964C50.1273 10.7964 50.1272 10.7964 50.1271 10.7964L50.089 10.6774M50.1274 10.7964C50.1275 10.7963 50.1276 10.7963 50.1277 10.7963L50.089 10.6774M50.1274 10.7964C49.4534 11.0157 48.739 11.125 47.9848 11.125C46.9102 11.125 45.9351 10.9063 45.062 10.4665L45.0615 10.4662C44.1992 10.0266 43.5163 9.41819 43.0157 8.64128L43.0151 8.64028C42.5241 7.86182 42.2792 6.98758 42.2792 6.02094C42.2792 5.0543 42.5241 4.18006 43.0151 3.40161L43.0157 3.4006C43.5163 2.6237 44.1992 2.01531 45.0615 1.5757L45.062 1.57543C45.9353 1.13555 46.9155 0.916891 48.0001 0.916891C48.7949 0.916891 49.5257 1.03554 50.1912 1.27451M50.089 10.6774C49.4283 10.8925 48.7269 11 47.9848 11C46.9277 11 45.9721 10.7849 45.1183 10.3548C44.2746 9.92471 43.6088 9.33096 43.1208 8.57358C42.6431 7.81621 42.4042 6.96533 42.4042 6.02094C42.4042 5.07656 42.6431 4.22568 43.1208 3.4683C43.6088 2.71093 44.2746 2.11718 45.1183 1.68706C45.9721 1.25695 46.9327 1.04189 48.0001 1.04189C48.7828 1.04189 49.4994 1.15877 50.15 1.39253M50.1912 1.27451C50.1909 1.2744 50.1905 1.27428 50.1902 1.27417L50.15 1.39253M50.1912 1.27451C50.1915 1.27464 50.1919 1.27476 50.1922 1.27489L50.15 1.39253M9.81614 1V0.875005H9.69114H8.91351H8.78851V1V5.39121H1.90263V1V0.875005H1.77763H1H0.875V1V10.8179V10.9429H1H1.77763H1.90263V10.8179V6.27236H8.78851V10.8179V10.9429H8.91351H9.69114H9.81614V10.8179V1ZM15.974 0.875H15.849V1V10.8179V10.9429H15.974H16.7516H16.8766V10.8179V1V0.875H16.7516H15.974ZM22.4305 0.875021H22.3055V1.00002V10.8179V10.9429H22.4305H29.3529H29.4779V10.8179V10.1727V10.0477H29.3529H23.3331V1.00002V0.875021H23.2081H22.4305ZM35.776 0.875012H35.651V1.00001V10.8179V10.9429H35.776H36.5536H36.6786V10.8179V1.00001V0.875012H36.5536H35.776ZM66.2199 1.00001V0.875012H66.0949H65.3172H65.1922V1.00001V5.39122H58.3064V1.00001V0.875012H58.1814H57.4037H57.2787V1.00001V10.8179V10.9429H57.4037H58.1814H58.3064V10.8179V6.27237H65.1922V10.8179V10.9429H65.3172H66.0949H66.2199V10.8179V1.00001ZM71.4126 1.70111V1.82611H71.5376H75.255V10.8738V10.9988H75.38H76.1576H76.2826V10.8738V1.82611H80H80.125V1.70111V1.05594V0.930941H80H71.5376H71.4126V1.05594V1.70111Z" fill="white" stroke="white" stroke-width="0.25"/>
</svg>
